<?xml version="1.0" standalone="no"?>
<!DOCTYPE svg PUBLIC "-//W3C//DTD SVG 20010904//EN"
 "http://www.w3.org/TR/2001/REC-SVG-20010904/DTD/svg10.dtd">
<svg version="1.0" xmlns="http://www.w3.org/2000/svg"
 width="512.000000pt" height="512.000000pt" viewBox="0 0 512.000000 512.000000"
 preserveAspectRatio="xMidYMid meet">
<metadata>
Created by potrace 1.14, written by Peter Selinger 2001-2017
</metadata>
<g transform="translate(0.000000,512.000000) scale(0.100000,-0.100000)"
fill="#000000" stroke="none">
<path d="M2379 5116 c-2 -2 -40 -6 -83 -10 -44 -4 -82 -9 -85 -11 -4 -2 -34
-7 -66 -10 -117 -14 -472 -111 -499 -136 -6 -5 -16 -9 -23 -9 -14 0 -87 -32
-214 -95 -274 -133 -587 -376 -779 -604 -25 -30 -50 -59 -55 -65 -54 -58 -186
-253 -252 -371 -75 -135 -180 -375 -198 -455 -2 -8 -15 -51 -28 -96 -22 -71
-38 -138 -51 -214 -2 -14 -7 -36 -10 -50 -29 -127 -42 -493 -24 -680 23 -237
103 -548 196 -760 31 -70 111 -232 130 -262 9 -15 34 -56 56 -92 42 -71 154
-223 226 -306 260 -305 616 -557 995 -708 88 -35 232 -83 290 -97 79 -19 207
-46 245 -51 25 -3 54 -8 65 -10 56 -12 169 -18 340 -19 231 0 299 6 505 46 58
12 115 23 128 25 47 9 320 103 387 134 690 312 1175 841 1410 1535 33 98 68
227 80 294 3 19 7 37 9 40 3 5 9 42 22 131 20 146 26 455 12 600 -47 469 -224
922 -507 1295 -25 33 -50 65 -56 71 -5 6 -28 33 -50 59 -238 285 -593 538
-990 705 -145 61 -419 133 -595 156 -25 3 -56 8 -70 10 -29 6 -456 15 -461 10z"/>
</g>
</svg>
